<?xml version="1.0" encoding="utf-8"?>
<!-- Generator: Adobe Illustrator 21.0.2, SVG Export Plug-In . SVG Version: 6.00 Build 0)  -->
<!DOCTYPE svg PUBLIC "-//W3C//DTD SVG 1.1//EN" "http://www.w3.org/Graphics/SVG/1.1/DTD/svg11.dtd" [
	<!ENTITY ns_extend "http://ns.adobe.com/Extensibility/1.0/">
	<!ENTITY ns_ai "http://ns.adobe.com/AdobeIllustrator/10.0/">
	<!ENTITY ns_graphs "http://ns.adobe.com/Graphs/1.0/">
	<!ENTITY ns_vars "http://ns.adobe.com/Variables/1.0/">
	<!ENTITY ns_imrep "http://ns.adobe.com/ImageReplacement/1.0/">
	<!ENTITY ns_sfw "http://ns.adobe.com/SaveForWeb/1.0/">
	<!ENTITY ns_custom "http://ns.adobe.com/GenericCustomNamespace/1.0/">
	<!ENTITY ns_adobe_xpath "http://ns.adobe.com/XPath/1.0/">
]>
<svg version="1.1" xmlns:x="&ns_extend;" xmlns:i="&ns_ai;" xmlns:graph="&ns_graphs;"
	 xmlns="http://www.w3.org/2000/svg" xmlns:xlink="http://www.w3.org/1999/xlink" x="0px" y="0px" viewBox="0 0 1000 710.4"
	 style="enable-background:new 0 0 1000 710.4;" xml:space="preserve">
<style type="text/css">
	.st0{fill:#ffffff;}
	.st1{fill:#9B9A98;}
	.st2{fill:#13161B;}
	.st3{fill:#FFFFFF;}
	.st4{fill:#FFFFFF;stroke:#FFFFFF;stroke-width:1.0863;stroke-miterlimit:10;}
	.st5{fill:#138DE3;}
</style>
<switch>
	<g i:extraneous="self">
		<g id="Background_1_">
			<rect id="Background" class="st0" width="1000" height="710.4"/>
		</g>
<!-- 		<g id="Oval_1_">
			<ellipse id="Oval" transform="matrix(0.9633 -0.2685 0.2685 0.9633 -79.8477 130.5383)" class="st1" cx="437.3" cy="357.2" rx="325.2" ry="213.7"/>
		</g> -->
		<g id="Shadow_1_">
			<g id="Shadow">
				<g>
					<path class="st2" d="M245.5,206.1h-7.3l-10.3,13.3c0,0-14.7-26.6-43.7-15.5c-29.1,11.1-48.8,50.6-56.4,90.4s4.3,66.6,21,84.4
						c16.7,17.7,32.2,51.1,13,85.5s-40.9,29.7-46,23.5c-5.1-6.2-18.5-17-9.8-76h-8.5l-21.7,85.6h6.3L95,483.6c0,0,13.4,31.7,49.2,15
						c35.8-16.7,70.1-92.7,57.6-146.3c0,0-6.2-24.8-26.1-44.4s-28.8-45.1-10.3-76.3c0,0,11.1-17.9,28-17.9c6.8,0,11.8,2.6,15.4,5.7
						c4.3,3.7,7,8.9,8.1,14.5c1.7,8.9,4.8,29.6,1.5,48.8h7.6L245.5,206.1z"/>
					<path class="st2" d="M253.1,400.3h64.6c0,0,14.7-53.5-13.6-72c-28.2-18.5-65.2,27.4-70.9,38.6c-5.4,10.6-35.3,65.4-19.5,111.6
						c2.7,8,8,15,15.3,19.2c6,3.5,14.2,5.8,24.8,3.8c7.9-1.5,15.2-5.2,21.3-10.3c9.3-7.6,24.7-23.3,31.6-47.2h-8
						c0,0-12.1,36.1-36.5,42.9c-24.4,6.8-24.2-10.6-23.1-22.8C240.4,451.9,253.1,400.3,253.1,400.3z M267.1,349.4
						c2.7-9.2,11.1-15.6,20.7-15.6c5.1,0,9,4.2,9,9c0,0.6-0.1,1.3-0.2,1.9l-9.3,43.6h-31.5L267.1,349.4z"/>
					<path class="st2" d="M637.7,400.3h64.6c0,0,14.7-53.5-13.6-72c-28.2-18.5-65.2,27.4-70.9,38.6c-5.4,10.6-35.3,65.4-19.5,111.6
						c2.7,8,8,15,15.3,19.2c6,3.5,14.2,5.8,24.8,3.8c7.9-1.5,15.2-5.2,21.3-10.3c9.3-7.6,24.7-23.3,31.6-47.2h-8
						c0,0-12.1,36.1-36.5,42.9c-24.4,6.8-24.2-10.6-23.1-22.8C624.9,451.9,637.7,400.3,637.7,400.3z M651.6,349.4
						c2.7-9.2,11.1-15.6,20.7-15.6c5.1,0,9,4.2,9,9c0,0.6-0.1,1.3-0.2,1.9l-9.3,43.6h-31.5L651.6,349.4z"/>
					<path class="st2" d="M344.4,328.6c0,0,34.5-0.5,46.6-3.4l-41.8,162h11.9l-2.7,10.7h-57.8l2.5-10.3h12.9l38.5-149h-12.1
						C342.5,338.5,344.5,329.8,344.4,328.6z"/>
					<path class="st2" d="M411.3,338.3c0,0,1.6-4.5,2-10c0,0,34.8,0,45.8-3l-7.2,29.4c0,0,17.1-30.8,44.6-30.5c0,0,21.4,0,20.4,32.3
						c-0.2,5.5-1,11-2.4,16.3l-29.6,115h10.7c0,0-2.2,6.5-2.2,10.9h-55l2.2-10.9h10.9l33.1-128.5c0,0,3.7-14-7.1-15.4
						c-4-0.5-8,0.9-11.1,3.5c-5.8,4.9-16.2,16.8-22.9,42.9c-9.8,37.7-25.3,97.2-25.3,97.2H429c0,0-2.6,10-2.6,11.1h-56.2l2.9-11.4
						H385L423.2,338L411.3,338.3z"/>
					<path class="st2" d="M592,328.4h21l-2.9,11.6h-20.6l-38.4,147.7h16.7l-2.5,10.9h-67.7l2.9-11h17.6l38-149h-16.8l2.4-10.1h17
						c0,0,16.5-69.6,37.4-99.5c18-25.7,35.2-30.5,49.2-25.6c5,1.8,9.2,5.2,11.6,10c2.4,4.9,4.2,12.4,1.4,22.4
						c-5.4,19.6-18.2,27.2-25.8,22.5c-7.5-4.5-8.4-21.2,1.8-37.3c0.7-1.2,1.4-2.4,1.8-3.7c0.8-2.3,1.2-5.2-1.6-5.9
						c-4.6-1.1-12.1,7.7-16.8,23.4C612.7,250.4,592,328.4,592,328.4z"/>
					<polygon class="st2" points="761.9,205.2 809.3,203 734.6,488.5 748,488.5 744.6,498.6 686.3,498.6 689.4,487.9 701.3,487.9 
						772,216 759.2,216 					"/>
					<path class="st2" d="M937.4,203.9l-49.4,1.8l-2.4,10.8h14.7l-35,134.4c-1.4-12.6-9.5-29.3-26.9-25.2
						c-17.4,4.1-38.6,18.7-55.9,64.1S768,467,768,467s-0.3,33.1,25,36.4c24.9,3.2,39.4-24.8,39.8-25.6c-6.9,20.8-6.4,24.7-6.4,24.7
						c28.1-3.3,47.3-2.3,47.3-2.3l3-11.3h-13.9L937.4,203.9z M851.3,402.3c-0.7,3-1.4,6-2,9.1c-2.9,14.5-13.8,61.6-35,75.8
						c-25.3,16.8-18.5-19.3-16.3-25c2.2-5.7,18.7-74.7,24.8-92.3s11-38.1,27.3-30.7C863.6,345.3,854.7,387.9,851.3,402.3z"/>
				</g>
			</g>
		</g>
		<g id="Text_1_">
			<g id="Text">
				<g>
					<g>
						<path class="st3" d="M236.8,197.4h-7.3l-10.3,13.3c0,0-14.7-26.6-43.7-15.5c-29.1,11.1-48.8,50.6-56.4,90.4
							c-7.6,39.8,4.3,66.6,21,84.4c16.7,17.7,32.2,51.1,13,85.5s-40.9,29.7-46,23.5c-5.1-6.2-18.5-17-9.8-76h-8.5l-21.7,85.6h6.3
							l12.9-13.8c0,0,13.4,31.7,49.2,15c35.8-16.7,70.1-92.7,57.6-146.3c0,0-6.2-24.8-26.1-44.4s-28.8-45.1-10.3-76.3
							c0,0,11.1-17.9,28-17.9c6.8,0,11.8,2.6,15.4,5.7c4.3,3.7,7,8.9,8.1,14.5c1.7,8.9,4.8,29.6,1.5,48.8h7.6L236.8,197.4z"/>
						<path class="st3" d="M116,495.3c-4,0-7.8-0.7-11.4-2.1c-11.4-4.4-17.1-14.6-18.5-17.4l-12.5,13.3h-7.3l22-86.7H98l-0.1,0.6
							c-8.1,55.1,3.2,68.1,8.6,74.4c0.4,0.4,0.7,0.8,1,1.2c2,2.4,6.8,4.6,12.9,4c6.6-0.6,19.6-5,32.2-27.5
							c18.3-32.8,5.3-65.3-13-84.8c-20.6-21.9-27.7-50.5-21.1-84.8c6.9-36,25.4-78.8,56.7-90.8c26.5-10.1,41.3,10.9,44,15l10-12.9
							h8.3l-19.8,77.7H209l0.1-0.6c3.3-19.3,0-40.4-1.5-48.6c-1.1-5.6-3.9-10.6-7.9-14.2c-4.2-3.7-9.3-5.6-15-5.6
							c-16.3,0-27.4,17.5-27.5,17.7c-16.2,27.5-12.8,52.9,10.2,75.6c19.7,19.4,26.2,44.4,26.2,44.6c12.8,54.8-22.4,130.4-57.9,146.9
							C128.8,493.7,122.1,495.3,116,495.3z M86.5,473.9l0.3,0.8c0.1,0.1,5.5,12.6,18.2,17.5c8.8,3.4,19,2.4,30.3-2.8
							c35.2-16.3,69.9-91.3,57.3-145.7c-0.1-0.2-6.4-24.9-25.9-44.1c-23.4-23.1-26.9-49-10.4-77c0.1-0.2,11.5-18.2,28.4-18.2
							c6,0,11.3,2,15.7,5.8c4.2,3.7,7.2,8.9,8.3,14.8c1.6,8.2,4.8,29.1,1.6,48.4h6.5l19.3-75.5h-6.4l-10.7,13.7l-0.4-0.7
							c-0.1-0.3-14.8-26.1-43.1-15.2c-30.9,11.8-49.2,54.3-56.1,90c-6.5,34,0.5,62.2,20.9,83.9c5.6,6,15.8,18.8,20.1,36.7
							c4.1,17.1,1.8,33.7-7,49.4c-12.8,23-26.2,27.4-33,28.1c-6.5,0.6-11.7-1.8-13.8-4.4c-0.3-0.4-0.7-0.8-1-1.2
							c-5.5-6.4-17-19.6-9-74.6h-7.5l-21.5,84.5h5.4L86.5,473.9z"/>
					</g>
					<path class="st4" d="M244.4,391.6h64.6c0,0,14.7-53.5-13.6-72c-28.2-18.5-65.2,27.4-70.9,38.6c-5.4,10.6-35.3,65.4-19.5,111.6
						c2.7,8,8,15,15.3,19.2c6,3.5,14.2,5.8,24.8,3.8c7.9-1.5,15.2-5.2,21.3-10.3c9.3-7.6,24.7-23.3,31.6-47.2h-8
						c0,0-12.1,36.1-36.5,42.9s-24.2-10.6-23.1-22.8C231.7,443.2,244.4,391.6,244.4,391.6z M258.4,340.7
						c2.7-9.2,11.1-15.6,20.7-15.6c5.1,0,9,4.2,9,9c0,0.6-0.1,1.3-0.2,1.9l-9.3,43.6h-31.5L258.4,340.7z"/>
					<path class="st4" d="M629,391.6h64.6c0,0,14.7-53.5-13.6-72c-28.2-18.5-65.2,27.4-70.9,38.6c-5.4,10.6-35.3,65.4-19.5,111.6
						c2.7,8,8,15,15.3,19.2c6,3.5,14.2,5.8,24.8,3.8c7.9-1.5,15.2-5.2,21.3-10.3c9.3-7.6,24.7-23.3,31.6-47.2h-8
						c0,0-12.1,36.1-36.5,42.9s-24.2-10.6-23.1-22.8C616.2,443.2,629,391.6,629,391.6z M643,340.7c2.7-9.2,11.1-15.6,20.7-15.6
						c5.1,0,9,4.2,9,9c0,0.6-0.1,1.3-0.2,1.9l-9.3,43.6h-31.5L643,340.7z"/>
					<g>
						<path class="st3" d="M335.7,319.9c0,0,34.5-0.5,46.6-3.4l-41.8,162h11.9l-2.7,10.7H292l2.5-10.3h12.9l38.5-149h-12.1
							C333.8,329.8,335.8,321.1,335.7,319.9z"/>
						<path class="st3" d="M350.2,489.7h-58.9l2.8-11.4h12.9l38.2-148h-12.1l0.2-0.7c0.8-3.3,2-8.9,1.9-9.7l-0.1-0.6l0.6,0
							c0.3,0,34.6-0.6,46.5-3.4l0.9-0.2l-0.2,0.9L341.2,478h11.9L350.2,489.7z M292.7,488.7h56.6l2.4-9.6h-12l41.8-161.9
							c-11.9,2.5-41.1,3.2-45.3,3.2c-0.2,1.9-1.3,6.8-1.7,8.8h12.1l-38.8,150.1h-12.8L292.7,488.7z"/>
					</g>
					<g>
						<path class="st3" d="M402.6,329.6c0,0,1.6-4.5,2-10c0,0,34.8,0,45.8-3l-7.2,29.4c0,0,17.1-30.8,44.6-30.5
							c0,0,21.4,0,20.4,32.3c-0.2,5.5-1,11-2.4,16.3l-29.6,115H487c0,0-2.2,6.5-2.2,10.9h-55l2.2-10.9h10.9l33.1-128.5
							c0,0,3.7-14-7.1-15.4c-4-0.5-8,0.9-11.1,3.5c-5.8,4.9-16.2,16.8-22.9,42.9c-9.8,37.7-25.3,97.2-25.3,97.2h10.7
							c0,0-2.6,10-2.6,11.1h-56.2l2.9-11.4h11.9l38.2-149.2L402.6,329.6z"/>
						<path class="st3" d="M485.3,490.5h-56.2l2.4-11.9h10.9l33-128.1c0-0.1,1.9-7.2-1-11.5c-1.2-1.8-3.1-2.8-5.6-3.2
							c-3.7-0.5-7.6,0.8-10.7,3.4c-5.6,4.7-16,16.6-22.7,42.6c-9.2,35.4-23.3,89.9-25.1,96.5H421l-0.2,0.7c-1,3.9-2.6,10.3-2.6,11
							v0.5h-57.5L364,478h11.9l37.9-148.1l-12,0.2l0.3-0.7c0,0,1.6-4.5,2-9.9l0-0.5l0.5,0c0.3,0,34.8,0,45.6-3l0.9-0.3l-6.6,27
							c5.1-7.7,20.9-28.2,43.3-27.8c0.3,0,7.2,0.1,13.1,6.1c5.6,5.7,8.2,14.7,7.8,26.8c-0.2,5.3-1,10.8-2.4,16.5L477,478.5h10.7
							l-0.2,0.7c0,0.1-2.1,6.5-2.1,10.7V490.5z M430.4,489.4h53.8c0.1-3.5,1.4-8,2-9.8h-10.6l0.2-0.7l29.6-115
							c1.4-5.6,2.2-11,2.4-16.2c0.4-11.7-2.2-20.4-7.5-26c-5.6-5.7-12.3-5.8-12.4-5.8c-26.9-0.4-44,29.9-44.2,30.2l-2,3.5l7.9-32.4
							c-11.1,2.7-40.2,2.8-44.5,2.8c-0.4,4.1-1.3,7.5-1.8,8.9l11.8-0.2l-38.5,150.3h-11.9l-2.6,10.3h55c0.3-2,1.8-7.9,2.4-10h-10.7
							l0.2-0.7c0,0,15.5-59.5,25.3-97.2c6.8-26.3,17.4-38.4,23.1-43.2c3.3-2.8,7.5-4.1,11.5-3.6c2.8,0.4,4.9,1.6,6.3,3.6
							c3.2,4.7,1.3,12.1,1.2,12.4l-33.2,128.9h-10.8L430.4,489.4z"/>
					</g>
					<g>
						<path class="st3" d="M583.3,319.7h21l-2.9,11.6h-20.6l-38.4,147.7H559l-2.5,10.9h-67.7l2.9-11h17.6l38-149h-16.8l2.4-10.1h17
							c0,0,16.5-69.6,37.4-99.5c18-25.7,35.2-30.5,49.2-25.6c5,1.8,9.2,5.2,11.6,10c2.4,4.9,4.2,12.4,1.4,22.4
							c-5.4,19.6-18.2,27.2-25.8,22.5c-7.5-4.5-8.4-21.2,1.8-37.3c0.7-1.2,1.4-2.4,1.8-3.7c0.8-2.3,1.2-5.2-1.6-5.9
							c-4.6-1.1-12.1,7.7-16.8,23.4C604,241.7,583.3,319.7,583.3,319.7z"/>
						<path class="st3" d="M556.9,490.5h-68.8l3.2-12.1h17.6l37.7-147.9h-16.8l2.6-11.2h17c1.4-5.9,17.5-70.8,37.4-99.3
							c20.1-28.7,38.2-29.9,49.8-25.8c5.3,1.9,9.5,5.5,11.9,10.2c2.3,4.6,4.4,12.3,1.5,22.8c-3.2,11.7-9.6,20.4-16.9,23.3
							c-3.5,1.4-7,1.2-9.7-0.4c-2.6-1.6-4.4-4.5-5.4-8.4c-2-8.4,0.7-19.8,7-29.7c0.8-1.3,1.4-2.4,1.8-3.6c0.6-1.9,0.7-3.3,0.2-4.2
							c-0.3-0.5-0.7-0.8-1.4-1c-4.1-1-11.5,7.5-16.2,23c-4.5,14.7-23.2,85.2-25.3,92.9h21l-3.2,12.7h-20.6l-38.1,146.6h16.6
							L556.9,490.5z M489.5,489.4h66.6l2.3-9.8h-16.7l0.2-0.7l38.5-148.1H601l2.6-10.5h-21l0.2-0.7c0.2-0.8,20.8-78.2,25.5-93.7
							c4.5-14.8,12-25,17.5-23.7c1,0.2,1.7,0.7,2.1,1.5c0.6,1.2,0.6,2.9-0.2,5c-0.4,1.2-1,2.5-1.9,3.8c-6.1,9.7-8.7,20.7-6.8,28.8
							c0.9,3.6,2.5,6.3,4.9,7.7c2.5,1.5,5.6,1.6,8.8,0.4c7-2.8,13.1-11.2,16.2-22.6c2.8-10.2,0.8-17.6-1.4-22
							c-2.2-4.5-6.2-7.9-11.3-9.7c-16.2-5.7-33,3.1-48.6,25.4c-20.6,29.4-37.1,98.6-37.3,99.3l-0.1,0.4h-17l-2.1,9.1H548
							l-38.3,150.1h-17.6L489.5,489.4z"/>
					</g>
					<g>
						<polygon class="st3" points="753.2,196.5 800.6,194.3 725.9,479.8 739.3,479.8 735.9,489.9 677.6,489.9 680.7,479.2 
							692.6,479.2 763.3,207.4 750.5,207.4 						"/>
						<path class="st3" d="M736.3,490.5h-59.4l3.4-11.8h11.9l70.4-270.8h-12.8l3-11.9l48.5-2.2l-74.7,285.5h13.5L736.3,490.5z
							 M678.3,489.4h57.2l3.1-9.1h-13.3l74.7-285.4l-46.2,2.1l-2.4,9.8H764l-0.2,0.7l-70.8,272.3h-12L678.3,489.4z"/>
					</g>
					<g>
						<path class="st3" d="M928.7,195.2l-49.4,1.8l-2.4,10.8h14.7l-35,134.4c-1.4-12.6-9.5-29.3-26.9-25.2
							c-17.4,4.1-38.6,18.7-55.9,64.1s-14.4,77.3-14.4,77.3s-0.3,33.1,25,36.4c24.9,3.2,39.4-24.8,39.8-25.6
							c-6.9,20.8-6.4,24.7-6.4,24.7c28.1-3.3,47.3-2.3,47.3-2.3l3-11.3h-13.9L928.7,195.2z M842.6,393.6c-0.7,3-1.4,6-2,9.1
							c-2.9,14.5-13.8,61.6-35,75.8c-25.3,16.8-18.5-19.3-16.3-25s18.7-74.7,24.8-92.3s11-38.1,27.3-30.7
							C854.9,336.6,846,379.2,842.6,393.6z"/>
						<path class="st3" d="M788.3,495.5c-1.3,0-2.6-0.1-4-0.3c-25.4-3.3-25.5-36.6-25.5-36.9c0-0.3-2.8-32.5,14.4-77.5
							c14.3-37.3,33.3-59,56.3-64.4c6-1.4,11.4-0.5,15.9,2.7c6.5,4.6,10,13,11.3,20.3l34.2-131.1h-14.6l2.6-11.8l50.6-1.8l-0.2,0.7
							l-74.4,284.3h13.9l-3.3,12.4l-0.4,0c-0.2,0-19.4-0.9-47.2,2.3l-0.5,0.1l-0.1-0.5c0-0.2-0.4-3.7,4.9-20.3
							C817.2,481,805.5,495.5,788.3,495.5z M834.8,316.9c-1.6,0-3.3,0.2-5,0.6c-22.7,5.3-41.4,26.8-55.6,63.8
							c-17.1,44.7-14.4,76.7-14.4,77c0,0.4,0,32.7,24.5,35.9c24.3,3.2,38.6-24.2,39.2-25.4l1,0.4c-5.5,16.5-6.3,22.3-6.4,23.9
							c25.2-2.9,43.3-2.4,46.3-2.3l2.7-10.2h-13.8L928,195.8l-48.3,1.8l-2.1,9.7h14.7l-0.2,0.7l-35.8,137.2l-0.3-2.9
							c-0.8-7.5-4.2-17.2-11.2-22.2C841.9,317.9,838.5,316.9,834.8,316.9z M794.5,483.5c-1.7,0-3.2-0.5-4.4-1.4
							c-7-5.6-2.8-25-1.4-28.7c0.9-2.2,4.1-15,7.9-29.8c5.9-23.1,13.3-51.9,16.9-62.6c0.6-1.7,1.2-3.4,1.7-5.1
							c3.9-11.5,7.8-23.4,15.3-26.6c3.2-1.4,6.8-1.2,11,0.7c13.6,6.2,5.6,46.6,1.5,63.7v0c-0.8,3.3-1.4,6.2-2,9.1
							c-2.9,14.3-13.8,61.9-35.3,76.2C801.3,482,797.5,483.5,794.5,483.5z M835,329.5c-1.4,0-2.7,0.3-3.9,0.8
							c-7.1,3.1-11,14.7-14.7,26c-0.6,1.7-1.1,3.4-1.7,5.1c-3.7,10.6-11,39.4-16.9,62.5c-3.9,15.4-7,27.6-7.9,29.9
							c-1.6,4.2-5,22.6,1.1,27.5c2.9,2.3,7.8,1.3,14.4-3.1c21.1-14.1,32-61.3,34.8-75.5c0.6-2.8,1.2-5.8,2-9.1v0
							c3.1-13.1,12.3-56.5-0.9-62.5C838.9,330,836.9,329.5,835,329.5z"/>
					</g>
				</g>
				<polygon class="st5" points="343.8,210 397.7,210.7 367.5,255.1 				"/>
			</g>
		</g>
	</g>
</switch>
</svg>
